<svg width="106" height="106" viewBox="0 0 106 106" fill="none" xmlns="http://www.w3.org/2000/svg">
<path d="M9.61651e-07 11C9.61651e-07 4.92487 4.92487 0 11 0C17.0751 0 22 4.92487 22 11V106H10C4.47715 106 9.61651e-07 101.523 9.61651e-07 96V11Z" fill="#D9D9D9"/>
<path d="M95 84C101.075 84 106 88.9249 106 95C106 101.075 101.075 106 95 106H10C4.47715 106 9.61651e-07 101.523 9.61651e-07 96V84L95 84Z" fill="#D9D9D9"/>
<path d="M56 42C61.5229 42 66 46.4772 66 52V54C66 59.5229 61.5228 64 56 64H0L9.61651e-07 42L56 42Z" fill="#D9D9D9"/>
</svg>
